<mxfile host="65bd71144e">
    <diagram id="GGrk7wptZOqg3pA64J-r" name="Page-1">
        <mxGraphModel dx="800" dy="663" grid="1" gridSize="10" guides="1" tooltips="1" connect="1" arrows="1" fold="1" page="1" pageScale="1" pageWidth="827" pageHeight="1169" math="0" shadow="0">
            <root>
                <mxCell id="0"/>
                <mxCell id="1" parent="0"/>
                <mxCell id="36" value="" style="rounded=1;whiteSpace=wrap;html=1;fillColor=#E3E3E3;" parent="1" vertex="1">
                    <mxGeometry x="30" y="60" width="660" height="440" as="geometry"/>
                </mxCell>
                <mxCell id="48" value="" style="rounded=1;whiteSpace=wrap;html=1;labelBackgroundColor=#CCE5FF;fontFamily=Helvetica;" parent="1" vertex="1">
                    <mxGeometry x="479" y="314" width="211" height="96" as="geometry"/>
                </mxCell>
                <mxCell id="4" value="faraday" style="rounded=0;whiteSpace=wrap;html=1;" parent="1" vertex="1">
                    <mxGeometry x="440" y="100" width="120" height="60" as="geometry"/>
                </mxCell>
                <mxCell id="5" value="" style="endArrow=none;html=1;entryX=0.658;entryY=1;entryDx=0;entryDy=0;entryPerimeter=0;" parent="1" edge="1">
                    <mxGeometry width="50" height="50" relative="1" as="geometry">
                        <mxPoint x="459" y="440" as="sourcePoint"/>
                        <mxPoint x="458.96000000000004" y="160" as="targetPoint"/>
                    </mxGeometry>
                </mxCell>
                <mxCell id="7" value="fit01" style="rounded=0;whiteSpace=wrap;html=1;" parent="1" vertex="1">
                    <mxGeometry x="580" y="210" width="100" height="60" as="geometry"/>
                </mxCell>
                <mxCell id="10" value="" style="endArrow=none;dashed=1;html=1;exitX=0;exitY=0.5;exitDx=0;exitDy=0;" parent="1" source="7" edge="1">
                    <mxGeometry width="50" height="50" relative="1" as="geometry">
                        <mxPoint x="460" y="460" as="sourcePoint"/>
                        <mxPoint x="460" y="240" as="targetPoint"/>
                    </mxGeometry>
                </mxCell>
                <mxCell id="11" value="control network" style="text;html=1;strokeColor=none;fillColor=none;align=center;verticalAlign=middle;whiteSpace=wrap;rounded=0;" parent="1" vertex="1">
                    <mxGeometry x="410" y="440" width="90" height="20" as="geometry"/>
                </mxCell>
                <mxCell id="13" value="sopnode-l1" style="rounded=0;whiteSpace=wrap;html=1;" parent="1" vertex="1">
                    <mxGeometry x="160" y="100" width="120" height="60" as="geometry"/>
                </mxCell>
                <mxCell id="15" value="&lt;font face=&quot;Courier New&quot; style=&quot;background-color: rgb(204 , 255 , 230)&quot;&gt;192.168.3.0/24&lt;/font&gt;" style="text;html=1;strokeColor=none;fillColor=none;align=center;verticalAlign=middle;whiteSpace=wrap;rounded=0;" parent="1" vertex="1">
                    <mxGeometry x="429" y="460" width="60" height="30" as="geometry"/>
                </mxCell>
                <mxCell id="16" value="sopnode subnet&lt;br&gt;&lt;br&gt;&lt;font face=&quot;Courier New&quot; style=&quot;background-color: rgb(230 , 212 , 225)&quot;&gt;138.96.245.0/24&lt;/font&gt;" style="text;html=1;strokeColor=none;fillColor=none;align=center;verticalAlign=middle;whiteSpace=wrap;rounded=0;" parent="1" vertex="1">
                    <mxGeometry x="220" y="450" width="60" height="30" as="geometry"/>
                </mxCell>
                <mxCell id="17" value="tunnel&lt;br&gt;&lt;span style=&quot;background-color: rgb(204 , 229 , 255)&quot;&gt;&lt;font face=&quot;Courier New&quot;&gt;10.3.1.x&lt;/font&gt;&lt;/span&gt;" style="text;html=1;strokeColor=none;fillColor=none;align=center;verticalAlign=middle;whiteSpace=wrap;rounded=0;" parent="1" vertex="1">
                    <mxGeometry x="330" y="80" width="60" height="30" as="geometry"/>
                </mxCell>
                <mxCell id="18" value="&lt;font face=&quot;Courier New&quot; style=&quot;background-color: rgb(204 , 229 , 255)&quot;&gt;10.3.1.2&lt;/font&gt;" style="text;html=1;strokeColor=none;fillColor=none;align=center;verticalAlign=middle;whiteSpace=wrap;rounded=0;" parent="1" vertex="1">
                    <mxGeometry x="280" y="110" width="60" height="30" as="geometry"/>
                </mxCell>
                <mxCell id="19" value="&lt;font face=&quot;Courier New&quot; style=&quot;background-color: rgb(204 , 229 , 255)&quot;&gt;10.3.1.3&lt;/font&gt;" style="text;html=1;strokeColor=none;fillColor=none;align=center;verticalAlign=middle;whiteSpace=wrap;rounded=0;" parent="1" vertex="1">
                    <mxGeometry x="380" y="110" width="60" height="30" as="geometry"/>
                </mxCell>
                <mxCell id="21" value="" style="endArrow=none;dashed=1;html=1;dashPattern=1 3;strokeWidth=2;exitX=0;exitY=1;exitDx=0;exitDy=0;" parent="1" source="18" edge="1">
                    <mxGeometry width="50" height="50" relative="1" as="geometry">
                        <mxPoint x="390" y="190" as="sourcePoint"/>
                        <mxPoint x="440" y="140" as="targetPoint"/>
                    </mxGeometry>
                </mxCell>
                <mxCell id="25" value="ipip tunnel" style="text;html=1;strokeColor=none;fillColor=none;align=center;verticalAlign=middle;whiteSpace=wrap;rounded=0;" parent="1" vertex="1">
                    <mxGeometry x="340" y="140" width="60" height="30" as="geometry"/>
                </mxCell>
                <mxCell id="26" value="" style="endArrow=none;html=1;entryX=0.658;entryY=1;entryDx=0;entryDy=0;entryPerimeter=0;" parent="1" edge="1">
                    <mxGeometry width="50" height="50" relative="1" as="geometry">
                        <mxPoint x="259" y="440" as="sourcePoint"/>
                        <mxPoint x="258.96000000000004" y="160" as="targetPoint"/>
                    </mxGeometry>
                </mxCell>
                <mxCell id="27" value="sopnode-w1" style="rounded=0;whiteSpace=wrap;html=1;" parent="1" vertex="1">
                    <mxGeometry x="40" y="240" width="100" height="60" as="geometry"/>
                </mxCell>
                <mxCell id="29" value="" style="shape=link;html=1;" parent="1" edge="1">
                    <mxGeometry width="100" relative="1" as="geometry">
                        <mxPoint x="360" y="460" as="sourcePoint"/>
                        <mxPoint x="360" y="124.5" as="targetPoint"/>
                    </mxGeometry>
                </mxCell>
                <mxCell id="30" value="" style="endArrow=none;dashed=1;html=1;exitX=0;exitY=0.5;exitDx=0;exitDy=0;" parent="1" edge="1">
                    <mxGeometry width="50" height="50" relative="1" as="geometry">
                        <mxPoint x="260" y="270" as="sourcePoint"/>
                        <mxPoint x="140" y="270" as="targetPoint"/>
                    </mxGeometry>
                </mxCell>
                <mxCell id="33" value="&lt;font face=&quot;Courier New&quot; style=&quot;background-color: rgb(204 , 255 , 230)&quot;&gt;192.168.3.100&lt;/font&gt;" style="text;html=1;strokeColor=none;fillColor=none;align=center;verticalAlign=middle;whiteSpace=wrap;rounded=0;" parent="1" vertex="1">
                    <mxGeometry x="460" y="160" width="80" height="30" as="geometry"/>
                </mxCell>
                <mxCell id="38" value="&lt;font face=&quot;Courier New&quot; style=&quot;background-color: rgb(230 , 212 , 225)&quot;&gt;138.96.245.50&lt;/font&gt;" style="text;html=1;strokeColor=none;fillColor=none;align=center;verticalAlign=middle;whiteSpace=wrap;rounded=0;" parent="1" vertex="1">
                    <mxGeometry x="182" y="93" width="100" height="30" as="geometry"/>
                </mxCell>
                <mxCell id="39" value="&lt;font face=&quot;Courier New&quot; style=&quot;background-color: rgb(230 , 212 , 225)&quot;&gt;138.96.16.97&lt;/font&gt;" style="text;html=1;strokeColor=none;fillColor=none;align=center;verticalAlign=middle;whiteSpace=wrap;rounded=0;" parent="1" vertex="1">
                    <mxGeometry x="466" y="93" width="100" height="30" as="geometry"/>
                </mxCell>
                <mxCell id="40" value="&lt;font face=&quot;Courier New&quot; style=&quot;background-color: rgb(230 , 212 , 225)&quot;&gt;138.96.245.51&lt;/font&gt;" style="text;html=1;strokeColor=none;fillColor=none;align=center;verticalAlign=middle;whiteSpace=wrap;rounded=0;" parent="1" vertex="1">
                    <mxGeometry x="42" y="233" width="100" height="30" as="geometry"/>
                </mxCell>
                <mxCell id="41" value="&lt;font face=&quot;Courier New&quot; style=&quot;background-color: rgb(204 , 255 , 230)&quot;&gt;192.168.3.1&lt;/font&gt;" style="text;html=1;strokeColor=none;fillColor=none;align=center;verticalAlign=middle;whiteSpace=wrap;rounded=0;" parent="1" vertex="1">
                    <mxGeometry x="589" y="203" width="100" height="30" as="geometry"/>
                </mxCell>
                <mxCell id="42" value="&lt;font face=&quot;Courier New&quot; style=&quot;background-color: rgb(204 , 229 , 255)&quot;&gt;10.3.3.1&lt;/font&gt;" style="text;html=1;strokeColor=none;fillColor=none;align=center;verticalAlign=middle;whiteSpace=wrap;rounded=0;" parent="1" vertex="1">
                    <mxGeometry x="510" y="334" width="80" height="30" as="geometry"/>
                </mxCell>
                <mxCell id="43" value="&lt;font face=&quot;Courier New&quot; style=&quot;background-color: rgb(230 , 212 , 225)&quot;&gt;138.96.245.51&lt;/font&gt;" style="text;html=1;strokeColor=none;fillColor=none;align=center;verticalAlign=middle;whiteSpace=wrap;rounded=0;" parent="1" vertex="1">
                    <mxGeometry x="482" y="353" width="100" height="30" as="geometry"/>
                </mxCell>
                <mxCell id="44" value="&lt;font face=&quot;Courier New&quot; style=&quot;background-color: rgb(204 , 255 , 230)&quot;&gt;192.168.3.1&lt;/font&gt;" style="text;html=1;strokeColor=none;fillColor=none;align=center;verticalAlign=middle;whiteSpace=wrap;rounded=0;" parent="1" vertex="1">
                    <mxGeometry x="489" y="372" width="100" height="30" as="geometry"/>
                </mxCell>
                <mxCell id="45" value="&lt;font face=&quot;Helvetica&quot;&gt;tunnel address&lt;/font&gt;" style="text;html=1;strokeColor=none;fillColor=none;align=center;verticalAlign=middle;whiteSpace=wrap;rounded=0;labelBackgroundColor=#CCE5FF;fontFamily=Courier New;" parent="1" vertex="1">
                    <mxGeometry x="590" y="334" width="100" height="30" as="geometry"/>
                </mxCell>
                <mxCell id="46" value="&lt;font face=&quot;Helvetica&quot;&gt;public address&lt;/font&gt;&lt;span style=&quot;color: rgba(0 , 0 , 0 , 0) ; font-family: monospace ; font-size: 0px ; background-color: rgb(248 , 249 , 250)&quot;&gt;%3CmxGraphModel%3E%3Croot%3E%3CmxCell%20id%3D%220%22%2F%3E%3CmxCell%20id%3D%221%22%20parent%3D%220%22%2F%3E%3CmxCell%20id%3D%222%22%20value%3D%22%26lt%3Bfont%20face%3D%26quot%3BHelvetica%26quot%3B%26gt%3Bisland%20address%26lt%3B%2Ffont%26gt%3B%22%20style%3D%22text%3Bhtml%3D1%3BstrokeColor%3Dnone%3BfillColor%3Dnone%3Balign%3Dcenter%3BverticalAlign%3Dmiddle%3BwhiteSpace%3Dwrap%3Brounded%3D0%3BlabelBackgroundColor%3D%23CCE5FF%3BfontFamily%3DCourier%20New%3B%22%20vertex%3D%221%22%20parent%3D%221%22%3E%3CmxGeometry%20x%3D%22150%22%20y%3D%22354%22%20width%3D%22100%22%20height%3D%2230%22%20as%3D%22geometry%22%2F%3E%3C%2FmxCell%3E%3C%2Froot%3E%3C%2FmxGraphModel%3E&lt;/span&gt;" style="text;html=1;strokeColor=none;fillColor=none;align=center;verticalAlign=middle;whiteSpace=wrap;rounded=0;labelBackgroundColor=#CCE5FF;fontFamily=Courier New;" parent="1" vertex="1">
                    <mxGeometry x="590" y="354" width="100" height="30" as="geometry"/>
                </mxCell>
                <mxCell id="47" value="&lt;font face=&quot;Helvetica&quot;&gt;NAT'ed address&lt;/font&gt;&lt;span style=&quot;color: rgba(0 , 0 , 0 , 0) ; font-family: monospace ; font-size: 0px ; background-color: rgb(248 , 249 , 250)&quot;&gt;%3CmxGraphModel%3E%3Croot%3E%3CmxCell%20id%3D%220%22%2F%3E%3CmxCell%20id%3D%221%22%20parent%3D%220%22%2F%3E%3CmxCell%20id%3D%222%22%20value%3D%22%26lt%3Bfont%20face%3D%26quot%3BHelvetica%26quot%3B%26gt%3Bisland%20address%26lt%3B%2Ffont%26gt%3B%22%20style%3D%22text%3Bhtml%3D1%3BstrokeColor%3Dnone%3BfillColor%3Dnone%3Balign%3Dcenter%3BverticalAlign%3Dmiddle%3BwhiteSpace%3Dwrap%3Brounded%3D0%3BlabelBackgroundColor%3D%23CCE5FF%3BfontFamily%3DCourier%20New%3B%22%20vertex%3D%221%22%20parent%3D%221%22%3E%3CmxGeometry%20x%3D%22150%22%20y%3D%22354%22%20width%3D%22100%22%20height%3D%2230%22%20as%3D%22geometry%22%2F%3E%3C%2FmxCell%3E%3C%2Froot%3E%3C%2FmxGraphModel%3E&lt;/span&gt;" style="text;html=1;strokeColor=none;fillColor=none;align=center;verticalAlign=middle;whiteSpace=wrap;rounded=0;labelBackgroundColor=#CCE5FF;fontFamily=Courier New;" parent="1" vertex="1">
                    <mxGeometry x="590" y="374" width="100" height="30" as="geometry"/>
                </mxCell>
                <mxCell id="49" value="&lt;font face=&quot;Courier New&quot; style=&quot;background-color: rgb(204 , 255 , 230)&quot;&gt;192.168.2.1&lt;/font&gt;" style="text;html=1;strokeColor=none;fillColor=none;align=center;verticalAlign=middle;whiteSpace=wrap;rounded=0;" vertex="1" parent="1">
                    <mxGeometry x="589" y="243" width="100" height="30" as="geometry"/>
                </mxCell>
            </root>
        </mxGraphModel>
    </diagram>
</mxfile>